<svg width="22" height="20" viewBox="0 0 22 20" fill="none" xmlns="http://www.w3.org/2000/svg">
<path d="M5.91451 8.87497V7.49998L5.91451 7.49993C5.91448 7.27644 5.84758 7.05834 5.72277 6.87324C5.59801 6.6882 5.42116 6.54464 5.21509 6.46004C5.00907 6.37546 4.78261 6.35339 4.56418 6.39643C4.34573 6.43949 4.14446 6.54587 3.98604 6.70284L3.986 6.70288L1.46358 9.20287L1.46355 9.2029C1.25105 9.41354 1.13086 9.70016 1.13086 9.99997C1.13086 10.2998 1.25105 10.5864 1.46355 10.797L1.46358 10.7971L3.986 13.2971L3.98604 13.2971C4.14445 13.4541 4.34573 13.5605 4.56419 13.6035C4.78262 13.6466 5.00907 13.6245 5.21509 13.5399C5.42116 13.4553 5.59801 13.3117 5.72277 13.1267C5.84758 12.9416 5.91448 12.7235 5.91451 12.5V12.5V11.125H8.56753C8.86595 11.125 9.15304 11.0075 9.3654 10.797C9.57792 10.5864 9.69813 10.2998 9.69813 9.99997C9.69813 9.70016 9.57792 9.41353 9.36541 9.2029L9.01343 9.55803L9.3654 9.2029C9.15304 8.99243 8.86595 8.87497 8.56753 8.87497H5.91451ZM20.7163 9.20291L20.7163 9.20287L18.1939 6.70288L18.1938 6.70284C18.0354 6.54588 17.8342 6.43948 17.6157 6.39643C17.3973 6.35339 17.1708 6.37546 16.9648 6.46004C16.7587 6.54464 16.5819 6.6882 16.4571 6.87325C16.3323 7.05834 16.2654 7.27644 16.2654 7.49993V7.49998V8.87497H13.6124C13.3139 8.87497 13.0269 8.99243 12.8145 9.2029C12.602 9.41353 12.4818 9.70016 12.4818 9.99997C12.4818 10.2998 12.602 10.5864 12.8145 10.797C13.0269 11.0075 13.3139 11.125 13.6124 11.125H16.2654V12.5V12.5C16.2654 12.7235 16.3323 12.9416 16.4571 13.1267C16.5819 13.3118 16.7587 13.4553 16.9648 13.5399C17.1708 13.6245 17.3973 13.6466 17.6157 13.6035C17.8342 13.5605 18.0355 13.4541 18.1939 13.2971L18.1939 13.2971L20.7163 10.7971L20.7163 10.797C20.9288 10.5864 21.049 10.2998 21.049 9.99997C21.049 9.70017 20.9288 9.41355 20.7163 9.20291ZM12.2206 16.8749V3.125C12.2206 2.82518 12.1003 2.53856 11.8878 2.32793C11.6755 2.11745 11.3884 2 11.0899 2C10.7915 2 10.5044 2.11745 10.2921 2.32793C10.0796 2.53856 9.95934 2.82518 9.95934 3.125V16.8749C9.95934 17.1748 10.0796 17.4614 10.2921 17.672C10.5044 17.8825 10.7915 17.9999 11.0899 17.9999C11.3884 17.9999 11.6755 17.8825 11.8878 17.672C12.1003 17.4614 12.2206 17.1748 12.2206 16.8749Z" fill="black" stroke="white"/>
</svg>
