<svg width="32" height="32" viewBox="0 0 24 24" fill="none" xmlns="http://www.w3.org/2000/svg">
<path d="M18.375 14.2511C16.9253 14.2511 15.75 15.4264 15.75 16.8761C15.75 18.3258 16.9253 19.5011 18.375 19.5011C19.8247 19.5011 21 18.3258 21 16.8761C21 15.4264 19.8247 14.2511 18.375 14.2511Z" stroke="#636363" stroke-width="1.5" stroke-linecap="round" stroke-linejoin="round"/>
<path d="M18.375 4.5011C16.9253 4.5011 15.75 5.67635 15.75 7.1261C15.75 8.57585 16.9253 9.7511 18.375 9.7511C19.8247 9.7511 21 8.57585 21 7.1261C21 5.67635 19.8247 4.5011 18.375 4.5011Z" stroke="#636363" stroke-width="1.5" stroke-linecap="round" stroke-linejoin="round"/>
<path d="M11.2499 12.0011L16.2087 8.60827" stroke="#636363" stroke-width="1.5" stroke-linecap="round" stroke-linejoin="round"/>
<path d="M2.25005 18.1593L8.59369 13.8189" stroke="#636363" stroke-width="1.5" stroke-linecap="round" stroke-linejoin="round"/>
<path d="M2.25006 5.84292L16.2089 15.3937" stroke="#636363" stroke-width="1.5" stroke-linecap="round" stroke-linejoin="round"/>
</svg>
